<svg width="35" height="36" viewBox="0 0 35 36" fill="none" xmlns="http://www.w3.org/2000/svg">
<path d="M30.4703 28.6061V24.6252C30.4862 23.9745 30.2664 23.3404 29.8528 22.8438C28.6863 21.4432 24.6855 20.5472 23.0997 20.8913C21.8634 21.1595 20.9985 22.4248 20.153 23.285C16.8875 21.396 14.1837 18.6453 12.3269 15.3232C13.1725 14.463 14.4162 13.5831 14.6798 12.3254C15.0175 10.7146 14.1398 6.6624 12.7753 5.46854C12.2953 5.04862 11.6817 4.82057 11.0487 4.82691H7.13561C5.64466 4.82834 4.40422 6.19149 4.53997 7.71969C4.52979 20.8913 14.6181 31.2704 27.6269 31.2601C29.1341 31.3986 30.4764 30.1279 30.4703 28.6061Z" stroke="#0C0C0C" stroke-width="2.88" stroke-linecap="round" stroke-linejoin="round"/>
</svg>
